<?xml version="1.0" encoding="UTF-8" standalone="no"?>
<svg
   viewBox="0 0 1440 320"
   version="1.1"
   id="svg4"
   sodipodi:docname="background.svg"
   inkscape:version="1.2.2 (732a01da63, 2022-12-09)"
   xmlns:inkscape="http://www.inkscape.org/namespaces/inkscape"
   xmlns:sodipodi="http://sodipodi.sourceforge.net/DTD/sodipodi-0.dtd"
   xmlns="http://www.w3.org/2000/svg"
   xmlns:svg="http://www.w3.org/2000/svg">
  <defs
     id="defs8" />
  <sodipodi:namedview
     id="namedview6"
     pagecolor="#ffffff"
     bordercolor="#000000"
     borderopacity="0.25"
     inkscape:showpageshadow="2"
     inkscape:pageopacity="0.0"
     inkscape:pagecheckerboard="0"
     inkscape:deskcolor="#d1d1d1"
     showgrid="false"
     inkscape:zoom="0.85277778"
     inkscape:cx="720"
     inkscape:cy="159.47883"
     inkscape:window-width="1366"
     inkscape:window-height="715"
     inkscape:window-x="-8"
     inkscape:window-y="-8"
     inkscape:window-maximized="1"
     inkscape:current-layer="svg4" />
  <path
     fill="rgba(255, 255, 255, 0.5)"
     fill-opacity="1"
     d="M0,64L48,80C96,96,192,128,288,138.7C384,149,480,139,576,138.7C672,139,768,149,864,138.7C960,128,1056,96,1152,85.3C1248,75,1344,85,1392,90.7L1440,96L1440,320L1392,320C1344,320,1248,320,1152,320C1056,320,960,320,864,320C768,320,672,320,576,320C480,320,384,320,288,320C192,320,96,320,48,320L0,320Z"
     id="path2" />
  <path
     style="opacity:0.5;fill:#800080;stroke-width:18.7622"
     d="M 0.58631922,192.18724 C 0.58631922,90.7859 0.8850498,64.944281 2.0521173,65.388739 11.719757,69.070491 98.915046,97.228903 118.659,103.04518 c 68.04196,20.04417 128.97513,32.49976 184.63289,37.74154 32.19458,3.03205 102.21322,3.46284 169.2814,1.04151 74.22213,-2.67961 133.30889,-2.6801 207.557,-0.002 41.78475,1.50732 71.43579,1.93088 103.19219,1.47406 79.24799,-1.14 107.7277,-5.08317 230.42342,-31.90346 75.9714,-16.606719 108.2824,-22.390165 147.1662,-26.341738 48.1345,-4.891693 114.8218,-4.661241 175.3094,0.605819 21.5418,1.87579 92.8384,9.440563 99.3811,10.544629 l 3.8111,0.643106 V 208.1964 319.54397 H 720 0.58631922 Z"
     id="path252" />
</svg>
