<?xml version="1.0" encoding="UTF-8" standalone="no"?>
<!-- Created with Inkscape (http://www.inkscape.org/) -->

<svg
   width="1024"
   height="1024"
   viewBox="0 0 270.93333 270.93333"
   version="1.1"
   id="svg5"
   inkscape:version="1.2.2 (732a01da63, 2022-12-09)"
   sodipodi:docname="MsgBox.JS.svg"
   xmlns:inkscape="http://www.inkscape.org/namespaces/inkscape"
   xmlns:sodipodi="http://sodipodi.sourceforge.net/DTD/sodipodi-0.dtd"
   xmlns="http://www.w3.org/2000/svg"
   xmlns:svg="http://www.w3.org/2000/svg"
   xmlns:rdf="http://www.w3.org/1999/02/22-rdf-syntax-ns#"
   xmlns:cc="http://creativecommons.org/ns#"
   xmlns:dc="http://purl.org/dc/elements/1.1/">
  <title
     id="title134">MsgBox.JS</title>
  <sodipodi:namedview
     id="namedview7"
     pagecolor="#ffffff"
     bordercolor="#000000"
     borderopacity="0.25"
     inkscape:showpageshadow="2"
     inkscape:pageopacity="0.0"
     inkscape:pagecheckerboard="0"
     inkscape:deskcolor="#d1d1d1"
     inkscape:document-units="px"
     showgrid="false"
     inkscape:zoom="0.47660634"
     inkscape:cx="510.90382"
     inkscape:cy="482.57856"
     inkscape:window-width="1366"
     inkscape:window-height="715"
     inkscape:window-x="-8"
     inkscape:window-y="-8"
     inkscape:window-maximized="1"
     inkscape:current-layer="layer1" />
  <defs
     id="defs2" />
  <g
     inkscape:label="Layer 1"
     inkscape:groupmode="layer"
     id="layer1">
    <path
       id="path14762"
       style="fill:#000000;fill-opacity:1;fill-rule:nonzero;stroke-width:1.50283;stroke-dasharray:none;paint-order:markers fill stroke"
       inkscape:transform-center-y="-12.935915"
       d="M 135.46666 -4.8740924 A 135.46666 135.46666 0 0 0 -4.332427e-06 130.59257 A 135.46666 135.46666 0 0 0 58.20006 241.81524 L 73.339187 220.97775 L 79.271642 186.38762 L 79.272159 186.38607 L 82.64663 166.71181 L 6.6300818 93.605167 L 34.942565 102.80409 L 69.672745 97.757885 L 89.428128 94.887259 L 135.46666 2.8633783e-05 L 135.46666 29.769271 L 150.99853 61.240217 L 159.83365 79.141967 L 264.30324 93.605167 L 235.99076 102.80409 L 166.5304 92.711164 L 159.83365 79.141967 L 155.56983 78.551822 L 163.81532 109.77834 L 192.88331 120.60559 L 192.24304 117.01872 L 235.99024 102.80461 L 210.85999 127.3013 L 192.88331 120.60559 L 195.8082 136.99838 L 210.85844 127.30233 L 196.56422 141.23585 L 214.30526 240.6551 A 135.46666 135.46666 0 0 0 270.93333 130.59257 A 135.46666 135.46666 0 0 0 135.46666 -4.8740924 z M 214.30526 240.6551 A 135.46666 135.46666 0 0 1 212.73326 241.81524 L 215.09177 245.06155 L 214.30526 240.6551 z M 212.73326 241.81524 L 197.59413 220.97775 L 166.5304 204.64645 L 148.86016 195.35709 L 59.818049 242.93662 A 135.46666 135.46666 0 0 0 135.46666 266.05924 A 135.46666 135.46666 0 0 0 212.73326 241.81524 z M 59.818049 242.93662 A 135.46666 135.46666 0 0 1 58.20006 241.81524 L 55.841548 245.06155 L 59.818049 242.93662 z M 148.86016 195.35709 L 152.65683 193.32828 L 127.63148 172.91195 L 97.751134 181.23858 L 100.37681 183.76349 L 73.339187 220.97775 L 135.46666 188.31566 L 148.86016 195.35709 z M 97.751134 181.23858 L 85.748766 169.69561 L 79.272159 186.38607 L 79.272159 186.38762 L 97.751134 181.23858 z M 85.748766 169.69561 L 97.432807 139.58582 L 80.280366 113.74141 L 78.690282 117.01872 L 34.943082 102.80461 L 85.204613 151.798 L 82.64663 166.71181 L 85.748766 169.69561 z M 80.280366 113.74141 L 87.549173 98.759891 L 69.672745 97.757885 L 80.280366 113.74141 z M 87.549173 98.759891 L 119.79578 100.56753 L 139.07523 76.268241 L 135.46666 75.768529 L 135.46666 29.769271 L 104.40292 92.711164 L 89.428128 94.887259 L 87.549173 98.759891 z M 139.07523 76.268241 L 155.56983 78.551822 L 150.99853 61.240217 L 139.07523 76.268241 z M 152.65683 193.32828 L 166.5304 204.64645 L 167.34327 185.48018 L 152.65683 193.32828 z M 167.34327 185.48018 L 170.55651 183.76349 L 197.59413 220.97775 L 185.72871 151.798 L 196.56422 141.23585 L 195.8082 136.99838 L 168.65792 154.48982 L 167.34327 185.48018 z "
       transform="translate(4.332427e-6,4.8740924)" />
    <path
       sodipodi:type="star"
       style="display:inline;fill:#ffffff;fill-opacity:1;fill-rule:nonzero;stroke-width:1.50283;stroke-dasharray:none;paint-order:markers fill stroke"
       id="path14768"
       inkscape:flatsided="false"
       sodipodi:sides="5"
       sodipodi:cx="135.46666"
       sodipodi:cy="135.46666"
       sodipodi:r1="285.48654"
       sodipodi:r2="32.341751"
       sodipodi:arg1="1.5326374"
       sodipodi:arg2="1.5707963"
       inkscape:rounded="0"
       inkscape:randomized="0"
       d="M 146.35788,420.74538 135.46666,167.80841 -132.48395,233.98079 104.70783,145.46081 -41.027143,-88.926975 116.45665,109.30163 294.3381,-101.73037 154.47666,109.30163 410.14841,213.26447 166.22549,145.46081 Z"
       inkscape:transform-center-y="-5.7006839"
       transform="matrix(0.44068652,0,0,0.44068652,75.768333,80.642421)" />
  </g>
  <metadata
     id="metadata132">
    <rdf:RDF>
      <cc:Work
         rdf:about="">
        <dc:title>MsgBox.JS</dc:title>
        <dc:publisher>
          <cc:Agent>
            <dc:title>AstroGroupSL-Dev</dc:title>
          </cc:Agent>
        </dc:publisher>
        <dc:coverage>Copyright 2024. All rights reseverd.</dc:coverage>
      </cc:Work>
    </rdf:RDF>
  </metadata>
</svg>
